<svg width="26" height="26" viewBox="0 0 26 26" fill="none" xmlns="http://www.w3.org/2000/svg">
<g clip-path="url(#clip0)">
<path d="M13 0.401168C19.957 0.401169 25.5988 6.04297 25.5988 13C25.5988 19.957 19.957 25.5988 13 25.5988C6.04298 25.5988 0.401187 19.957 0.401187 13C0.401188 6.04297 6.04298 0.401168 13 0.401168Z" fill="#C8C7C7"/>
<path d="M14.6352 21.3891C16.0723 19.952 17.5094 18.5149 18.9465 17.0777C20.3125 15.7117 19.307 13.2641 17.3723 13.2641C16.6766 13.2641 15.9809 13.2641 15.2852 13.2641C15.2852 10.9485 15.2852 8.63282 15.2852 6.31212C15.2852 3.42267 10.8063 3.39728 10.8063 6.28165C10.8063 8.60743 10.8063 10.9383 10.8063 13.2641C10.1969 13.2641 9.59259 13.2641 8.98322 13.2641C8.84611 13.2539 8.709 13.2539 8.57189 13.2742C7.61213 13.3402 6.9926 13.9141 6.72345 14.6352C6.37814 15.341 6.38322 16.2094 7.02814 16.9508C7.11955 17.0727 7.22111 17.1793 7.34299 17.2758C8.71916 18.652 10.0903 20.0231 11.4664 21.3992C12.3348 22.2727 13.7719 22.2473 14.6352 21.3891Z" fill="white"/>
</g>
<defs>
<clipPath id="clip0">
<rect width="26" height="26" fill="white" transform="translate(26) rotate(90)"/>
</clipPath>
</defs>
</svg>
