<svg width="46" height="47" viewBox="0 0 46 47" fill="none" xmlns="http://www.w3.org/2000/svg">
<g filter="url(#filter0_d)">
<path d="M23 38.5C12.799 38.5 4.5 30.201 4.5 20C4.5 9.799 12.799 1.5 23 1.5C33.201 1.5 41.5 9.799 41.5 20C41.5 30.201 33.201 38.5 23 38.5Z" fill="url(#paint0_linear)"/>
<path d="M23 2C32.925 2 41 10.075 41 20C41 29.925 32.925 38 23 38C13.075 38 5 29.925 5 20C5 10.075 13.075 2 23 2ZM23 1C12.507 1 4 9.507 4 20C4 30.493 12.507 39 23 39C33.493 39 42 30.493 42 20C42 9.507 33.493 1 23 1Z" fill="#4788C7"/>
<path d="M31 24.087C31 16.8883 19.436 17.4374 19.436 13.3913C19.436 12.087 20.632 10.9613 23.0907 10.9613C25.8747 10.9613 27.8787 11.7335 29.436 12.657V8.25478C28.304 7.63913 26.5987 7.27522 24.3333 7.15783V4H21.6667V7.22565C19.6747 7.43304 18.0667 8.12435 16.8507 9.30739C15.6173 10.5087 15 11.9617 15 13.6678C15 20.4113 26.5693 20.62 26.5693 24.3152C26.5693 25.63 24.8853 26.6461 23.0067 26.6461C18.3347 26.6461 15.6453 25.0535 15.0013 24.5435V29.0591C16.9227 30.0361 19.4333 30.5317 21.668 30.5539V34H21.752H24.1853H24.3333V30.4365C26.4453 30.1822 28.084 29.5248 29.236 28.4487C30.4107 27.3452 31 25.8909 31 24.087Z" fill="#5686B3"/>
<g filter="url(#filter1_d)">
<path d="M18.0619 19.9966C18.0619 20.7041 17.9401 21.3622 17.6964 21.9711C17.4571 22.58 17.1182 23.1106 16.6796 23.5628C16.2409 24.0105 15.7115 24.362 15.0912 24.6172C14.4753 24.8724 13.7908 25 13.0376 25C12.2844 25 11.5977 24.8724 10.9774 24.6172C10.3571 24.362 9.82541 24.0105 9.38235 23.5628C8.94372 23.1106 8.60256 22.58 8.35888 21.9711C8.11963 21.3622 8 20.7041 8 19.9966C8 19.2892 8.11963 18.6311 8.35888 18.0222C8.60256 17.4133 8.94372 16.8849 9.38235 16.4372C9.82541 15.9895 10.3571 15.638 10.9774 15.3828C11.5977 15.1276 12.2844 15 13.0376 15C13.7908 15 14.4753 15.1298 15.0912 15.3895C15.7115 15.6447 16.2409 15.9962 16.6796 16.4439C17.1182 16.8916 17.4571 17.42 17.6964 18.0289C17.9401 18.6378 18.0619 19.2937 18.0619 19.9966ZM15.7624 19.9966C15.7624 19.5131 15.7004 19.0788 15.5764 18.6938C15.4523 18.3042 15.2729 17.9752 15.038 17.7065C14.8076 17.4379 14.5241 17.2319 14.1874 17.0887C13.8506 16.9454 13.4674 16.8737 13.0376 16.8737C12.6034 16.8737 12.2157 16.9454 11.8746 17.0887C11.5378 17.2319 11.2521 17.4379 11.0172 17.7065C10.7869 17.9752 10.6096 18.3042 10.4856 18.6938C10.3615 19.0788 10.2995 19.5131 10.2995 19.9966C10.2995 20.4847 10.3615 20.9234 10.4856 21.313C10.6096 21.698 10.7869 22.0248 11.0172 22.2935C11.2521 22.5621 11.5378 22.7681 11.8746 22.9114C12.2157 23.0501 12.6034 23.1195 13.0376 23.1195C13.4674 23.1195 13.8506 23.0501 14.1874 22.9114C14.5241 22.7681 14.8076 22.5621 15.038 22.2935C15.2729 22.0248 15.4523 21.698 15.5764 21.313C15.7004 20.9234 15.7624 20.4847 15.7624 19.9966Z" fill="white"/>
<path d="M28.2513 15.1075L24.37 24.8925H22.3364L18.4552 15.1075H20.2629C20.4578 15.1075 20.6151 15.1545 20.7347 15.2485C20.8544 15.338 20.9452 15.4544 21.0072 15.5977L22.8814 20.8361C22.97 21.0645 23.0564 21.3152 23.1406 21.5883C23.2247 21.857 23.3045 22.139 23.3798 22.4345C23.4418 22.139 23.5105 21.857 23.5858 21.5883C23.6656 21.3152 23.7498 21.0645 23.8384 20.8361L25.6992 15.5977C25.748 15.4724 25.8344 15.3604 25.9584 15.2619C26.0869 15.1589 26.2442 15.1075 26.4303 15.1075H28.2513Z" fill="white"/>
<path d="M38 15.1075V24.8925H36.8303C36.6575 24.8925 36.5113 24.8657 36.3917 24.812C36.2765 24.7538 36.1613 24.6553 36.0461 24.5165L31.4804 18.6803C31.4981 18.8549 31.5091 19.0251 31.5136 19.1907C31.5224 19.3519 31.5269 19.5041 31.5269 19.6474V24.8925H29.5464V15.1075H30.7294C30.8268 15.1075 30.9088 15.1119 30.9753 15.1209C31.0417 15.1298 31.1015 15.1478 31.1547 15.1746C31.2079 15.197 31.2588 15.2306 31.3076 15.2754C31.3563 15.3201 31.4117 15.3806 31.4737 15.4567L36.0793 21.3331C36.0572 21.1451 36.0417 20.9637 36.0328 20.7891C36.0239 20.61 36.0195 20.4421 36.0195 20.2854V15.1075H38Z" fill="white"/>
</g>
</g>
<defs>
<filter id="filter0_d" x="-1" y="0" width="48" height="48" filterUnits="userSpaceOnUse" color-interpolation-filters="sRGB">
<feFlood flood-opacity="0" result="BackgroundImageFix"/>
<feColorMatrix in="SourceAlpha" type="matrix" values="0 0 0 0 0 0 0 0 0 0 0 0 0 0 0 0 0 0 127 0" result="hardAlpha"/>
<feOffset dy="4"/>
<feGaussianBlur stdDeviation="2"/>
<feComposite in2="hardAlpha" operator="out"/>
<feColorMatrix type="matrix" values="0 0 0 0 0 0 0 0 0 0 0 0 0 0 0 0 0 0 0.25 0"/>
<feBlend mode="normal" in2="BackgroundImageFix" result="effect1_dropShadow"/>
<feBlend mode="normal" in="SourceGraphic" in2="effect1_dropShadow" result="shape"/>
</filter>
<filter id="filter1_d" x="6" y="13" width="36" height="16" filterUnits="userSpaceOnUse" color-interpolation-filters="sRGB">
<feFlood flood-opacity="0" result="BackgroundImageFix"/>
<feColorMatrix in="SourceAlpha" type="matrix" values="0 0 0 0 0 0 0 0 0 0 0 0 0 0 0 0 0 0 127 0" result="hardAlpha"/>
<feOffset dx="1" dy="1"/>
<feGaussianBlur stdDeviation="1.5"/>
<feComposite in2="hardAlpha" operator="out"/>
<feColorMatrix type="matrix" values="0 0 0 0 0 0 0 0 0 0 0 0 0 0 0 0 0 0 0.25 0"/>
<feBlend mode="normal" in2="BackgroundImageFix" result="effect1_dropShadow"/>
<feBlend mode="normal" in="SourceGraphic" in2="effect1_dropShadow" result="shape"/>
</filter>
<linearGradient id="paint0_linear" x1="23" y1="1.5" x2="23" y2="38.5" gradientUnits="userSpaceOnUse">
<stop stop-color="#6DB6FB"/>
<stop offset="1" stop-color="#FFA756"/>
</linearGradient>
</defs>
</svg>
