<svg width="38" height="38" viewBox="0 0 38 38" fill="none" xmlns="http://www.w3.org/2000/svg">
<path d="M19 37.5C8.799 37.5 0.5 29.201 0.5 19C0.5 8.799 8.799 0.5 19 0.5C29.201 0.5 37.5 8.799 37.5 19C37.5 29.201 29.201 37.5 19 37.5Z" fill="url(#paint0_linear)"/>
<path d="M19 1C28.925 1 37 9.075 37 19C37 28.925 28.925 37 19 37C9.075 37 1 28.925 1 19C1 9.075 9.075 1 19 1ZM19 0C8.507 0 0 8.507 0 19C0 29.493 8.507 38 19 38C29.493 38 38 29.493 38 19C38 8.507 29.493 0 19 0Z" fill="#4788C7"/>
<path d="M27 23.087C27 15.8883 15.436 16.4374 15.436 12.3913C15.436 11.087 16.632 9.9613 19.0907 9.9613C21.8747 9.9613 23.8787 10.7335 25.436 11.657V7.25478C24.304 6.63913 22.5987 6.27522 20.3333 6.15783V3H17.6667V6.22565C15.6747 6.43304 14.0667 7.12435 12.8507 8.30739C11.6173 9.5087 11 10.9617 11 12.6678C11 19.4113 22.5693 19.62 22.5693 23.3152C22.5693 24.63 20.8853 25.6461 19.0067 25.6461C14.3347 25.6461 11.6453 24.0535 11.0013 23.5435V28.0591C12.9227 29.0361 15.4333 29.5317 17.668 29.5539V33H17.752H20.1853H20.3333V29.4365C22.4453 29.1822 24.084 28.5248 25.236 27.4487C26.4107 26.3452 27 24.8909 27 23.087Z" fill="#5686B3"/>
<g filter="url(#filter0_d)">
<path d="M14.0619 18.9966C14.0619 19.7041 13.9401 20.3622 13.6964 20.9711C13.4571 21.58 13.1182 22.1106 12.6796 22.5628C12.2409 23.0105 11.7115 23.362 11.0912 23.6172C10.4753 23.8724 9.79081 24 9.03761 24C8.2844 24 7.59766 23.8724 6.97737 23.6172C6.35709 23.362 5.82541 23.0105 5.38235 22.5628C4.94372 22.1106 4.60256 21.58 4.35888 20.9711C4.11963 20.3622 4 19.7041 4 18.9966C4 18.2892 4.11963 17.6311 4.35888 17.0222C4.60256 16.4133 4.94372 15.8849 5.38235 15.4372C5.82541 14.9895 6.35709 14.638 6.97737 14.3828C7.59766 14.1276 8.2844 14 9.03761 14C9.79081 14 10.4753 14.1298 11.0912 14.3895C11.7115 14.6447 12.2409 14.9962 12.6796 15.4439C13.1182 15.8916 13.4571 16.42 13.6964 17.0289C13.9401 17.6378 14.0619 18.2937 14.0619 18.9966ZM11.7624 18.9966C11.7624 18.5131 11.7004 18.0788 11.5764 17.6938C11.4523 17.3042 11.2729 16.9752 11.038 16.7065C10.8076 16.4379 10.5241 16.2319 10.1874 16.0887C9.85063 15.9454 9.46738 15.8737 9.03761 15.8737C8.60341 15.8737 8.21573 15.9454 7.87457 16.0887C7.53785 16.2319 7.25207 16.4379 7.01725 16.7065C6.78686 16.9752 6.60963 17.3042 6.48557 17.6938C6.36152 18.0788 6.29949 18.5131 6.29949 18.9966C6.29949 19.4847 6.36152 19.9234 6.48557 20.313C6.60963 20.698 6.78686 21.0248 7.01725 21.2935C7.25207 21.5621 7.53785 21.7681 7.87457 21.9114C8.21573 22.0501 8.60341 22.1195 9.03761 22.1195C9.46738 22.1195 9.85063 22.0501 10.1874 21.9114C10.5241 21.7681 10.8076 21.5621 11.038 21.2935C11.2729 21.0248 11.4523 20.698 11.5764 20.313C11.7004 19.9234 11.7624 19.4847 11.7624 18.9966Z" fill="white"/>
<path d="M24.2513 14.1075L20.37 23.8925H18.3364L14.4552 14.1075H16.2629C16.4578 14.1075 16.6151 14.1545 16.7347 14.2485C16.8544 14.338 16.9452 14.4544 17.0072 14.5977L18.8814 19.8361C18.97 20.0645 19.0564 20.3152 19.1406 20.5883C19.2247 20.857 19.3045 21.139 19.3798 21.4345C19.4418 21.139 19.5105 20.857 19.5858 20.5883C19.6656 20.3152 19.7498 20.0645 19.8384 19.8361L21.6992 14.5977C21.748 14.4724 21.8344 14.3604 21.9584 14.2619C22.0869 14.1589 22.2442 14.1075 22.4303 14.1075H24.2513Z" fill="white"/>
<path d="M34 14.1075V23.8925H32.8303C32.6575 23.8925 32.5113 23.8657 32.3917 23.812C32.2765 23.7538 32.1613 23.6553 32.0461 23.5165L27.4804 17.6803C27.4981 17.8549 27.5091 18.0251 27.5136 18.1907C27.5224 18.3519 27.5269 18.5041 27.5269 18.6474V23.8925H25.5464V14.1075H26.7294C26.8268 14.1075 26.9088 14.1119 26.9753 14.1209C27.0417 14.1298 27.1015 14.1478 27.1547 14.1746C27.2079 14.197 27.2588 14.2306 27.3076 14.2754C27.3563 14.3201 27.4117 14.3806 27.4737 14.4567L32.0793 20.3331C32.0572 20.1451 32.0417 19.9637 32.0328 19.7891C32.0239 19.61 32.0195 19.4421 32.0195 19.2854V14.1075H34Z" fill="white"/>
</g>
<defs>
<filter id="filter0_d" x="2" y="12" width="36" height="16" filterUnits="userSpaceOnUse" color-interpolation-filters="sRGB">
<feFlood flood-opacity="0" result="BackgroundImageFix"/>
<feColorMatrix in="SourceAlpha" type="matrix" values="0 0 0 0 0 0 0 0 0 0 0 0 0 0 0 0 0 0 127 0" result="hardAlpha"/>
<feOffset dx="1" dy="1"/>
<feGaussianBlur stdDeviation="1.5"/>
<feComposite in2="hardAlpha" operator="out"/>
<feColorMatrix type="matrix" values="0 0 0 0 0 0 0 0 0 0 0 0 0 0 0 0 0 0 0.25 0"/>
<feBlend mode="normal" in2="BackgroundImageFix" result="effect1_dropShadow"/>
<feBlend mode="normal" in="SourceGraphic" in2="effect1_dropShadow" result="shape"/>
</filter>
<linearGradient id="paint0_linear" x1="19" y1="0.5" x2="19" y2="37.5" gradientUnits="userSpaceOnUse">
<stop stop-color="#6DB6FB"/>
<stop offset="1" stop-color="#FFA756"/>
</linearGradient>
</defs>
</svg>
