<svg xmlns="http://www.w3.org/2000/svg" xmlns:xlink="http://www.w3.org/1999/xlink" viewBox="0 0 40.2 40.2"><defs><style>.cls-1{fill:#001845;}.cls-2{fill:url(#Безымянный_градиент_7);}.cls-3{fill:#fff;}.cls-4{fill:#51ff00;}</style><linearGradient id="Безымянный_градиент_7" x1="1.7" y1="41.45" x2="22" y2="17.87" gradientUnits="userSpaceOnUse"><stop offset="0.48" stop-color="#0466c8"/><stop offset="0.55" stop-color="#0358b0"/><stop offset="0.69" stop-color="#023c82"/><stop offset="0.82" stop-color="#012861"/><stop offset="0.93" stop-color="#001c4c"/><stop offset="1" stop-color="#001845"/></linearGradient></defs><g id="Слой_2" data-name="Слой 2"><g id="Слой_1-2" data-name="Слой 1"><circle class="cls-1" cx="20.1" cy="20.1" r="20.1"/><path class="cls-2" d="M31.7,30.5a18,18,0,0,1-21.2-14A17.77,17.77,0,0,1,12.9,3.3,18,18,0,1,0,35.8,29.1,15.3,15.3,0,0,1,31.7,30.5Z"/><path class="cls-3" d="M18.9,30.8a6.07,6.07,0,0,1-5.8-6.2h2.7c0,2.5,1.5,4,4.3,4s4.3-1.5,4.3-3.3c0-5.1-11.1-2.5-11.1-10,0-2.5,2.3-5.1,5.6-5.5v-3h2.3v3A6.24,6.24,0,0,1,26.5,16H23.8A3.85,3.85,0,0,0,20,12c-2.5,0-4.1,1.7-4.1,3.3,0,5.1,11.1,2.5,11.1,10,0,2.7-2.2,5.1-5.8,5.6v3H18.9Z"/><path class="cls-4" d="M20,37.8a18.12,18.12,0,0,1-6.4-1.2A17.82,17.82,0,1,1,36.7,26.3h0A17.84,17.84,0,0,1,20,37.8ZM20.1,3A17,17,0,1,0,36,26.1h0a17,17,0,0,0-9.8-22A16.41,16.41,0,0,0,20.1,3Z"/><polygon class="cls-4" points="16.9 2.9 11.9 2 13.5 4.4 14.2 7.2 16.9 2.9"/><polygon class="cls-4" points="23.1 37.3 28.1 38.2 26.5 35.8 25.8 33 23.1 37.3"/></g></g></svg>